HIERARCHY
ROOT Hips
{
	OFFSET -0.001795 -0.223333 0.028219
	CHANNELS 6 Xposition Yposition Zposition Zrotation Yrotation Xrotation 
	JOINT LeftUpLeg
	{
		OFFSET 0.069520 -0.091406 -0.006815
		CHANNELS 3 Zrotation Yrotation Xrotation
		JOINT LeftLeg
		{
			OFFSET 0.034277 -0.375199 -0.004496
			CHANNELS 3 Zrotation Yrotation Xrotation
			JOINT LeftFoot
			{
				OFFSET -0.013596 -0.397961 -0.043693
				CHANNELS 3 Zrotation Yrotation Xrotation
				JOINT LeftToe
				{
					OFFSET 0.026358 -0.055791 0.119288
					CHANNELS 3 Zrotation Yrotation Xrotation
					End Site
					{
						OFFSET 0.000000 0.000000 0.000000
					}
				}
			}
		}
	}
	JOINT RightUpLeg
	{
		OFFSET -0.067670 -0.090522 -0.004320
		CHANNELS 3 Zrotation Yrotation Xrotation
		JOINT RightLeg
		{
			OFFSET -0.038290 -0.382569 -0.008850
			CHANNELS 3 Zrotation Yrotation Xrotation
			JOINT RightFoot
			{
				OFFSET 0.015774 -0.398415 -0.042312
				CHANNELS 3 Zrotation Yrotation Xrotation
				JOINT RightToe
				{
					OFFSET -0.025372 -0.048144 0.123348
					CHANNELS 3 Zrotation Yrotation Xrotation
					End Site
					{
						OFFSET 0.000000 0.000000 0.000000
					}
				}
			}
		}
	}
	JOINT Spine
	{
		OFFSET -0.002533 0.108963 -0.026696
		CHANNELS 3 Zrotation Yrotation Xrotation
		JOINT Spine1
		{
			OFFSET 0.005487 0.135180 0.001092
			CHANNELS 3 Zrotation Yrotation Xrotation
			JOINT Spine2
			{
				OFFSET 0.001457 0.052922 0.025425
				CHANNELS 3 Zrotation Yrotation Xrotation
				JOINT Neck
				{
					OFFSET -0.002778 0.213870 -0.042857
					CHANNELS 3 Zrotation Yrotation Xrotation
					JOINT Head
					{
						OFFSET 0.005152 0.064970 0.051349
						CHANNELS 3 Zrotation Yrotation Xrotation
						End Site
						{
							OFFSET 0.000000 0.000000 0.000000
						}
					}
				}
				JOINT LeftShoulder
				{
					OFFSET 0.078845 0.121749 -0.034090
					CHANNELS 3 Zrotation Yrotation Xrotation
					JOINT LeftArm
					{
						OFFSET 0.090977 0.030469 -0.008868
						CHANNELS 3 Zrotation Yrotation Xrotation
						JOINT LeftForeArm
						{
							OFFSET 0.259612 -0.012772 -0.027456
							CHANNELS 3 Zrotation Yrotation Xrotation
							JOINT LeftHand
							{
								OFFSET 0.249234 0.008986 -0.001171
								CHANNELS 3 Zrotation Yrotation Xrotation
								End Site
								{
									OFFSET 0.000000 0.000000 0.000000
								}
							}
						}
					}
				}
				JOINT RightShoulder
				{
					OFFSET -0.081759 0.118833 -0.038615
					CHANNELS 3 Zrotation Yrotation Xrotation
					JOINT RightArm
					{
						OFFSET -0.096012 0.032551 -0.009143
						CHANNELS 3 Zrotation Yrotation Xrotation
						JOINT RightForeArm
						{
							OFFSET -0.253742 -0.013329 -0.021401
							CHANNELS 3 Zrotation Yrotation Xrotation
							JOINT RightHand
							{
								OFFSET -0.255298 0.007772 -0.005559
								CHANNELS 3 Zrotation Yrotation Xrotation
								End Site
								{
									OFFSET 0.000000 0.000000 0.000000
								}
							}
						}
					}
				}
			}
		}
	}
}
MOTION
Frames: 18
Frame Time: 0.050000
0.000011 0.962570 -0.031120 -0.828957 -2.202962 -1.412658 3.551486 0.746978 11.811179 -3.100414 0.490601 -14.865125 2.272926 10.467490 23.598212 0.000000 0.000000 0.000000 -3.338005 -0.504839 8.687318 2.038593 -0.397979 -9.536499 2.404636 -3.696461 19.650565 0.000000 0.000000 0.000000 2.758155 -0.426995 6.520036 -0.420181 0.716414 -25.819543 -0.990201 2.631278 27.439002 3.976114 -0.362059 -27.552373 0.000000 0.000000 0.000000 -17.583052 -0.584353 -0.902347 -43.042268 -10.750985 -3.516352 1.330418 -10.151838 0.316166 0.000000 0.000000 0.000000 17.378654 -1.791301 -1.598094 43.654602 10.762852 -2.809708 -5.313782 10.013004 0.063816 0.000000 0.000000 0.000000 
-0.000099 0.962883 -0.031508 -0.858836 -2.054857 -1.472092 3.685903 0.759921 12.291505 -3.239139 0.493131 -15.654233 2.077042 10.298061 23.934629 0.000000 0.000000 0.000000 -3.129489 -0.550027 8.985279 1.579813 -0.402277 -10.039707 2.680279 -3.384909 20.127245 0.000000 0.000000 0.000000 2.585708 -0.421827 6.604320 -0.267274 0.698454 -26.393231 -0.961076 2.485707 27.887712 3.882974 -0.384012 -26.996000 0.000000 0.000000 0.000000 -15.592344 -0.344393 -0.837791 -39.094197 -11.744157 -3.042707 2.972781 -9.050556 0.158566 0.000000 0.000000 0.000000 14.857768 -2.117004 -1.585973 39.797185 11.667182 -2.431126 -5.825571 8.551511 0.038491 0.000000 0.000000 0.000000 
-0.000217 0.963265 -0.031788 -0.844886 -1.749422 -1.528757 3.664153 0.771806 12.583453 -3.159559 0.491801 -16.154279 1.849521 10.090335 24.163345 0.000000 0.000000 0.000000 -3.145940 -0.561840 9.073157 1.435547 -0.405077 -10.090640 2.907507 -3.067050 20.431466 0.000000 0.000000 0.000000 2.291082 -0.411253 6.721860 -0.027914 0.656296 -26.655058 -1.129833 1.859164 28.295927 3.671584 -0.367267 -26.793854 0.000000 0.000000 0.000000 -13.275775 0.524744 -0.998698 -35.188681 -13.015089 -2.562480 4.398173 -7.558499 0.052767 0.000000 0.000000 0.000000 12.001221 -2.380795 -1.578570 35.750178 12.476654 -2.081387 -5.608197 7.610254 0.041739 0.000000 0.000000 0.000000 
-0.000408 0.963629 -0.031941 -0.862501 -1.565407 -1.611665 3.781012 0.768115 12.824261 -3.272809 0.486462 -16.467073 1.688851 9.946995 24.345545 0.000000 0.000000 0.000000 -2.761805 -0.626362 9.352631 0.962371 -0.415285 -10.637161 2.645234 -3.694823 21.116055 0.000000 0.000000 0.000000 2.003998 -0.409028 6.993244 0.360213 0.595783 -27.412863 -1.139642 1.511369 28.790081 3.472518 -0.384515 -25.932680 0.000000 0.000000 0.000000 -11.043328 1.210546 -1.110157 -30.920379 -14.089958 -2.180209 5.771760 -6.177466 -0.014737 0.000000 0.000000 0.000000 9.147921 -2.719245 -1.549849 32.003275 12.701178 -1.934673 -5.430648 6.572611 0.049090 0.000000 0.000000 0.000000 
-0.000605 0.964147 -0.032055 -0.936281 -1.194635 -1.551121 3.850214 0.750717 12.896785 -3.170694 0.482543 -16.806161 1.455489 9.739285 24.534290 0.000000 0.000000 0.000000 -2.600058 -0.662950 9.506165 0.728325 -0.419395 -10.731718 2.816090 -3.288088 20.943436 0.000000 0.000000 0.000000 1.852100 -0.401252 6.992330 0.497275 0.577928 -27.737928 -1.291598 0.899247 29.157362 3.463518 -0.475379 -25.725940 0.000000 0.000000 0.000000 -8.736720 2.083179 -1.288168 -27.707400 -15.038320 -1.906582 7.096593 -4.814003 -0.041564 0.000000 0.000000 0.000000 6.664086 -3.203879 -1.606490 29.069205 13.083348 -1.764749 -5.776550 6.127696 0.036160 0.000000 0.000000 0.000000 
-0.000795 0.964461 -0.032078 -0.950808 -0.878143 -1.581912 3.669012 0.767552 12.998859 -2.748924 0.490000 -17.010333 1.291380 9.590988 24.619889 0.000000 0.000000 0.000000 -2.198909 -0.737915 9.825751 0.217928 -0.437270 -11.289860 2.537719 -3.833790 21.411544 0.000000 0.000000 0.000000 1.669828 -0.389825 6.982857 0.767757 0.538472 -28.161873 -1.468111 0.659285 29.320074 3.516434 -0.625704 -24.631745 0.000000 0.000000 0.000000 -6.591549 2.497382 -1.307710 -24.359285 -15.346436 -1.759512 8.852573 -4.160498 -0.078439 0.000000 0.000000 0.000000 4.326904 -3.761374 -1.655683 26.488138 13.077983 -1.690927 -6.625167 5.867713 0.013979 0.000000 0.000000 0.000000 
-0.000871 0.964783 -0.032084 -1.038946 -0.497012 -1.447703 3.628168 0.763856 13.105278 -2.445916 0.497381 -17.545659 1.063720 9.396101 24.822379 0.000000 0.000000 0.000000 -1.897726 -0.787191 9.929170 -0.187073 -0.455170 -11.704945 2.597986 -3.805424 21.845848 0.000000 0.000000 0.000000 1.415055 -0.372856 6.928691 0.955048 0.517792 -28.618100 -1.561367 -0.025050 29.629334 3.295697 -0.593709 -24.504367 0.000000 0.000000 0.000000 -4.342914 3.864063 -1.678467 -21.508059 -15.632994 -1.658319 9.600441 -4.231238 -0.100818 0.000000 0.000000 0.000000 1.928530 -4.639768 -1.813808 23.999400 13.634459 -1.526261 -7.159561 5.839061 -0.009239 0.000000 0.000000 0.000000 
-0.000897 0.964942 -0.032047 -1.154378 -0.282643 -1.465773 3.565611 0.771385 13.233687 -2.075877 0.510950 -17.788494 0.954903 9.304644 24.884344 0.000000 0.000000 0.000000 -1.339499 -0.866199 10.084402 -0.641223 -0.466970 -11.961246 2.042956 -4.692092 22.018011 0.000000 0.000000 0.000000 1.309321 -0.366353 6.916456 1.243630 0.474906 -29.028786 -1.743311 -0.232653 29.907146 3.202642 -0.635362 -23.659087 0.000000 0.000000 0.000000 -2.228582 4.556713 -1.790132 -18.642934 -15.451658 -1.604943 10.793297 -4.659911 -0.165867 0.000000 0.000000 0.000000 -0.423528 -5.296264 -1.849853 22.054899 13.604782 -1.488298 -7.968064 6.181298 -0.050083 0.000000 0.000000 0.000000 
-0.000839 0.965584 -0.032101 -1.175430 -0.072140 -1.385258 3.457230 0.786282 13.395510 -1.823444 0.524216 -18.282795 0.782980 9.180318 25.198660 0.000000 0.000000 0.000000 -1.249710 -0.900101 10.302884 -0.714268 -0.482363 -12.254780 2.015756 -4.656913 21.897272 0.000000 0.000000 0.000000 1.234085 -0.366542 6.989839 1.395359 0.459422 -29.447539 -1.851239 -0.618487 30.123322 2.964306 -0.570705 -23.301950 0.000000 0.000000 0.000000 -0.741951 5.842501 -2.157634 -16.455728 -15.597257 -1.536333 12.006709 -5.695683 -0.277478 0.000000 0.000000 0.000000 -2.474222 -6.025000 -1.911998 20.315118 13.682340 -1.430275 -9.036571 7.055041 -0.135556 0.000000 0.000000 0.000000 
-0.000764 0.966247 -0.032292 -1.139093 0.012333 -1.326518 3.296660 0.789141 13.163190 -1.605862 0.528736 -18.041881 0.741858 9.154314 25.262823 0.000000 0.000000 0.000000 -1.106594 -0.917936 10.307064 -0.929757 -0.477868 -12.131492 1.855669 -4.765540 21.473598 0.000000 0.000000 0.000000 1.198407 -0.361474 6.928147 1.791668 0.393126 -29.728530 -2.084102 -0.603682 30.185150 2.771294 -0.463642 -23.027202 0.000000 0.000000 0.000000 0.940879 6.407631 -2.225810 -14.268969 -15.386518 -1.482601 13.740325 -6.529818 -0.432654 0.000000 0.000000 0.000000 -4.675084 -6.624204 -1.907044 18.830955 13.888187 -1.368068 -10.477233 7.683547 -0.235204 0.000000 0.000000 0.000000 
-0.000750 0.967150 -0.032775 -1.004311 0.306851 -1.153555 3.046533 0.802089 13.040892 -1.388919 0.536024 -18.288843 0.527140 8.992639 25.582912 0.000000 0.000000 0.000000 -1.121699 -0.926811 10.363010 -1.020697 -0.486481 -12.251687 1.667482 -4.903491 21.121109 0.000000 0.000000 0.000000 1.074818 -0.348362 6.803460 1.804753 0.410604 -30.206803 -2.344321 -0.849145 30.377470 2.761050 -0.500268 -22.757897 0.000000 0.000000 0.000000 2.392511 7.344407 -2.432278 -12.006048 -15.785281 -1.398316 16.255168 -7.693073 -0.694847 0.000000 0.000000 0.000000 -6.620905 -7.232799 -1.907868 17.228496 14.102365 -1.305559 -12.417443 8.593229 -0.406034 0.000000 0.000000 0.000000 
-0.000871 0.968030 -0.033543 -1.063599 0.110605 -1.018831 2.789424 0.814011 12.661245 -0.183870 0.493567 -14.830251 -1.012304 5.018713 18.209358 0.000000 0.000000 0.000000 -1.120466 -0.900218 10.118833 -0.968905 -0.478224 -12.117600 1.887305 -4.591800 21.139019 0.000000 0.000000 0.000000 0.948914 -0.348232 6.957651 2.016009 0.394235 -30.800142 -2.479392 -0.638033 30.581804 2.681123 -0.455123 -22.514864 0.000000 0.000000 0.000000 4.230850 7.939171 -2.467444 -10.251978 -16.238496 -1.339408 19.522587 -8.092127 -0.967122 0.000000 0.000000 0.000000 -8.060875 -7.677960 -1.909068 15.437124 14.865660 -1.216888 -15.205638 8.800105 -0.587653 0.000000 0.000000 0.000000 
-0.001154 0.968245 -0.034499 -1.055286 0.208724 -0.925494 2.818617 0.791221 12.427714 0.178778 0.453838 -13.510558 -1.649876 3.249645 15.615242 0.000000 0.000000 0.000000 -0.982843 -0.924716 10.199122 -1.080765 -0.490135 -12.339924 1.745999 -4.721034 20.884631 0.000000 0.000000 0.000000 0.945516 -0.347666 6.937441 1.909617 0.420269 -30.966361 -2.551117 -0.438175 30.502719 2.924216 -0.596477 -22.168127 0.000000 0.000000 0.000000 5.366084 8.040005 -2.376821 -8.068767 -16.677987 -1.284065 22.984736 -8.427381 -1.303211 0.000000 0.000000 0.000000 -8.494018 -8.146962 -2.027259 13.610931 15.171462 -1.175164 -19.424055 9.522820 -0.939954 0.000000 0.000000 0.000000 
-0.001554 0.968520 -0.035366 -1.059172 0.098058 -0.809846 2.860645 0.770207 12.145583 0.122713 0.448187 -13.313177 -1.587767 3.336952 15.638803 0.000000 0.000000 0.000000 -1.038294 -0.908196 10.113711 -1.023255 -0.488529 -12.329661 1.962848 -4.297147 20.584546 0.000000 0.000000 0.000000 0.890195 -0.343969 6.933459 1.802574 0.446646 -31.129994 -2.507603 -0.292341 30.621022 3.212501 -0.761724 -22.275275 0.000000 0.000000 0.000000 6.598463 8.428687 -2.379536 -6.694871 -17.457453 -1.271966 26.701724 -8.704998 -1.659285 0.000000 0.000000 0.000000 -8.667724 -8.619217 -2.155461 11.801689 16.039588 -1.137116 -24.162071 9.702051 -1.305916 0.000000 0.000000 0.000000 
-0.001947 0.968285 -0.036118 -0.925717 -0.077062 -0.862965 2.909043 0.773907 12.187933 -0.210570 0.448871 -13.318957 -1.532425 3.401117 15.648425 0.000000 0.000000 0.000000 -0.992432 -0.929805 10.337698 -1.300482 -0.501313 -12.615665 1.973156 -4.224306 20.301720 0.000000 0.000000 0.000000 0.880996 -0.342516 6.940298 1.411781 0.521831 -31.219240 -2.436680 0.119671 30.678419 3.728524 -1.076659 -21.961010 0.000000 0.000000 0.000000 7.414505 8.303110 -2.241346 -5.077925 -17.900741 -1.272066 31.181866 -9.047584 -2.173577 0.000000 0.000000 0.000000 -8.254825 -9.285767 -2.422154 10.248684 16.330151 -1.136637 -30.095679 11.471099 -2.165917 0.000000 0.000000 0.000000 
-0.002300 0.968646 -0.036834 -0.784842 -0.207049 -0.991012 2.950893 0.779038 12.253532 -0.535886 0.446204 -13.235788 -1.524543 3.437189 15.773729 0.000000 0.000000 0.000000 -1.162276 -0.925024 10.530284 -1.433349 -0.507586 -12.757765 2.328719 -3.686436 20.345200 0.000000 0.000000 0.000000 0.664403 -0.334137 7.093382 1.401471 0.530878 -31.379938 -2.403289 0.273550 30.824018 4.055584 -1.251899 -22.253922 0.000000 0.000000 0.000000 7.850153 8.855182 -2.360310 -4.075758 -18.502711 -1.295810 36.822472 -10.699419 -3.217752 0.000000 0.000000 0.000000 -8.098588 -9.914986 -2.631353 8.734652 17.372268 -1.143276 -36.568644 12.444645 -3.093601 0.000000 0.000000 0.000000 
-0.002522 0.968680 -0.037645 -0.770547 -0.413012 -1.002714 3.039508 0.776095 12.263357 -0.740063 0.449387 -13.267785 -1.450309 3.543337 15.833082 0.000000 0.000000 0.000000 -1.173786 -0.938298 10.746416 -1.569409 -0.527597 -13.178223 2.653403 -3.213426 20.402486 0.000000 0.000000 0.000000 0.973916 -0.337929 6.763604 0.811415 0.636246 -31.393928 -2.440835 0.663323 30.817574 4.367042 -1.435389 -21.980901 0.000000 0.000000 0.000000 8.711686 8.905446 -2.264974 -3.448211 -18.901076 -1.317698 42.768060 -12.757845 -4.694963 0.000000 0.000000 0.000000 -7.505599 -10.062978 -2.766065 8.101774 18.573304 -1.159565 -44.714012 12.797658 -4.088731 0.000000 0.000000 0.000000 
-0.002655 0.968888 -0.038402 -0.695294 -1.182239 -1.264837 2.871150 0.865148 12.878777 -0.731312 0.474686 -13.734447 -1.171878 3.964446 16.138206 0.000000 0.000000 0.000000 -1.606432 -0.877147 10.834112 -0.928386 -0.513792 -13.232803 2.822665 -3.174728 20.659031 0.000000 0.000000 0.000000 1.172593 -0.360160 7.022018 0.363018 0.705463 -31.068468 -1.998374 1.564665 30.334641 5.064544 -1.847417 -21.517112 0.000000 0.000000 0.000000 9.795774 8.498893 -1.981409 -3.879148 -18.567898 -1.286886 50.118729 -15.065360 -6.832111 0.000000 0.000000 0.000000 -7.528349 -10.620132 -2.948427 7.703158 19.727040 -1.152074 -52.519659 12.924815 -4.981928 0.000000 0.000000 0.000000 
